<svg fill="none" height="40" viewBox="0 0 332 40" width="332" xmlns="http://www.w3.org/2000/svg"><g fill="#eee" fill-opacity=".33"><path d="m3.1202 30.9176h-2.926352v-30.9176h2.926352z"/><path d="m119.461 2.58675c0 1.18751.975 2.16296 2.163 2.16296 1.187 0 2.205-.97545 2.205-2.16296s-1.018-2.205369-2.205-2.205369c-1.188 0-2.163 1.017859-2.163 2.205369z"/><path d="m120.182 10.3904v20.5269h2.926v-20.5269z"/><path d="m235.696 30.9176h2.884v-18.0671h4.113v-2.4598h-4.113v-6.48888h-2.884v6.48888h-4.114v2.4598h4.114z"/><path d="m220.321 9.83998c-5.98 0-9.924 4.41072-9.924 10.85722s3.944 10.73 9.754 10.73c4.666 0 8.313-2.7568 9.288-6.9554h-2.968c-.806 2.6294-3.266 4.3259-6.32 4.3259-4.156 0-6.87-3.2657-6.87-8.1429 0-5.0469 2.926-8.2278 7.083-8.2278 2.841 0 5.301 1.5693 6.064 4.4108h2.927c-.806-4.2411-4.284-6.99782-9.034-6.99782z"/><path clip-rule="evenodd" d="m195.576 31.4272c-4.369 0-6.956-2.4599-6.956-6.0648 0-3.7746 2.884-6.1496 7.677-6.5313l6.785-.5513v-.6786c0-4.0291-2.417-5.3014-5.428-5.3014-3.563 0-5.683 1.6116-5.683 4.3683h-2.672c0-4.1562 3.393-6.82812 8.44-6.82812 4.75 0 8.227 2.37502 8.227 7.80362v13.2746h-2.459l-.382-3.6049c-1.273 2.5871-4.072 4.1139-7.549 4.1139zm.678-2.3751c4.326 0 6.828-3.0111 6.828-7.4643v-1.1027l-6.064.4666c-3.86.3392-5.429 2.0357-5.429 4.3259 0 2.5022 1.866 3.7745 4.665 3.7745z" fill-rule="evenodd"/><path clip-rule="evenodd" d="m164.913 10.3913v29.4756h2.926v-12.8929c1.442 2.9688 4.199 4.4532 7.676 4.4532 6.065 0 9.5-4.6652 9.5-10.8572 0-6.1921-3.562-10.73002-9.5-10.73002-3.435 0-6.319 1.52682-7.761 4.70762l-.297-4.1563zm10.093 18.4064c-4.495 0-7.125-3.4353-7.125-8.1429 0-4.7501 2.63-8.1429 7.125-8.1429 4.453 0 7.041 3.3928 7.041 8.1429 0 4.7076-2.588 8.1429-7.041 8.1429z" fill-rule="evenodd"/><path d="m132.137 30.9182h-2.926v-20.5269h2.545l.339 2.9264c1.018-2.163 3.308-3.47772 6.192-3.47772 3.223 0 5.641 1.69642 6.616 4.36832.933-2.6719 3.435-4.36832 6.744-4.36832 4.453 0 7.379 2.88392 7.379 7.63402v13.4442h-2.842v-12.8505c0-3.5201-1.95-5.5982-5.089-5.5982-3.435 0-5.471 2.587-5.471 5.7678v12.6809h-2.884v-12.8929c0-3.4777-1.993-5.5134-5.089-5.5134-3.435 0-5.514 2.5446-5.514 5.683z"/><path d="m36.8637 30.9174-6.7858-20.5269h3.0112l4.029 12.384c.4665 1.3571.8482 2.7567 1.2724 4.4107.3037-1.4809.8795-3.3018 1.1489-4.1538l.0004-.0011c.0313-.0991.0585-.1851.0806-.2558l4.0714-12.384h3.0112l4.029 12.384c.3817 1.1027.8907 2.8839 1.2724 4.4107.0764-.3056.1418-.5728.2019-.8182.2734-1.1167.4369-1.7845 1.028-3.5925l3.4748-10.5691 1.5712 4.3208-4.8764 14.3912h-2.8415l-4.2411-12.8929c-.5089-1.5268-.8482-2.7992-1.1027-4.0291-.2969 1.1027-.6361 2.3326-1.1875 4.0291l-4.2411 12.8929z"/><path d="m58.1604 10.3905 1.0821 3.2959.0047-.0137 5.7007 17.2445h2.9263l4.2411-12.8929c.5514-1.6964.8907-2.9264 1.1875-4.029.2545 1.2299.5938 2.5022 1.1027 4.029l4.2411 12.8929h2.8415l4.8723-14.3789-1.5712-4.3207-3.4707 10.5567c-.5911 1.808-.7546 2.4758-1.028 3.5925-.0601.2454-.1255.5126-.2019.8183-.3817-1.5268-.8907-3.3081-1.2724-4.4108l-4.029-12.384h-3.0112l-4.0714 12.384c-.0222.071-.0495.1573-.081.2568-.2694.8523-.8452 2.6734-1.1489 4.154-.4241-1.6541-.8059-3.0536-1.2724-4.4108l-4.029-12.384z"/><path d="m86.236 10.3903h3.0212l4.0291 12.384c.4665 1.3572.8482 2.7567 1.2723 4.4108.3038-1.481.8795-3.3019 1.1489-4.1538l.0566-.1791.0244-.0779 4.0715-12.384h3.011l4.029 12.384c.382 1.1027.891 2.884 1.273 4.4108.076-.3058.141-.573.202-.8185.273-1.1166.436-1.7844 1.027-3.5923l4.072-12.384h3.053l-6.955 20.5269h-2.841l-4.242-12.8929c-.508-1.5268-.848-2.7991-1.102-4.029-.297 1.1026-.636 2.3326-1.188 4.029l-4.2408 12.8929h-2.9264l-5.7006-17.2442-.0088.0261z"/><path clip-rule="evenodd" d="m18.3357 9.83998c-6.0224 0-10.43312 4.53802-10.43312 10.81482 0 6.2344 4.41072 10.7724 10.43312 10.7724 6.0223 0 10.4331-4.538 10.4331-10.7724 0-6.2768-4.4108-10.81482-10.4331-10.81482zm0 18.95772c-4.4108 0-7.4644-3.3505-7.4644-8.1853 0-4.7501 3.0536-8.1429 7.4644-8.1429 4.3683 0 7.4643 3.3928 7.4643 8.1429 0 4.8348-3.096 8.1853-7.4643 8.1853z" fill-rule="evenodd"/><path d="m244.487 30.7969c-.926 0-1.715-.7621-1.715-1.6603 0-.9254.789-1.7147 1.715-1.7147.925 0 1.714.7893 1.714 1.7147 0 .8982-.789 1.6603-1.714 1.6603z"/><path d="m249.306 25.2288h2.872c0 2.3729 1.827 3.8559 4.786 3.8559 3.263 0 5.178-1.3559 5.178-3.5593 0-1.6949-.871-2.6695-3.351-3.2627l-3.611-.8898c-3.655-.8898-5.438-2.7543-5.438-5.5509 0-3.6017 3.089-5.8898 7.614-5.8898 4.437 0 7.309 2.3729 7.44 6.1864h-2.915c-.087-2.3728-1.784-3.7711-4.612-3.7711-2.959 0-4.612 1.2288-4.612 3.4322 0 1.5678 1.131 2.6695 3.437 3.2203l3.611.8898c3.655.8899 5.308 2.5424 5.308 5.5085 0 3.6864-3.219 6.1017-8.005 6.1017-4.743 0-7.702-2.4576-7.702-6.2712z"/><path d="m274.785 30.9915h-2.959v-18.0508h-4.22v-2.4576h4.22v-6.4831h2.959v6.4831h4.22v2.4576h-4.22z"/><path d="m288.623 31.5c-4.482 0-7.136-2.4576-7.136-6.0593 0-3.7712 2.959-6.1441 7.875-6.5254l6.962-.5509v-.678c0-4.0254-2.48-5.2966-5.569-5.2966-3.655 0-5.831 1.6102-5.831 4.3644h-2.741c0-4.1525 3.481-6.822 8.659-6.822 4.873 0 8.44 2.3729 8.44 7.7966v13.2627h-2.523l-.392-3.6017c-1.305 2.5848-4.177 4.1102-7.744 4.1102zm.696-2.3729c4.438 0 7.005-3.0085 7.005-7.4576v-1.1017l-6.222.4661c-3.959.339-5.569 2.0339-5.569 4.322 0 2.5 1.914 3.7712 4.786 3.7712z"/><path d="m309.754 30.9915h-2.959v-18.0508h-4.22v-2.4576h4.22v-6.4831h2.959v6.4831h4.22v2.4576h-4.22z"/><path d="m316.1 25.2288h2.871c0 2.3729 1.828 3.8559 4.786 3.8559 3.263 0 5.178-1.3559 5.178-3.5593 0-1.6949-.87-2.6695-3.35-3.2627l-3.612-.8898c-3.654-.8898-5.438-2.7543-5.438-5.5509 0-3.6017 3.089-5.8898 7.614-5.8898 4.438 0 7.309 2.3729 7.44 6.1864h-2.915c-.087-2.3728-1.784-3.7711-4.612-3.7711-2.959 0-4.612 1.2288-4.612 3.4322 0 1.5678 1.131 2.6695 3.437 3.2203l3.611.8898c3.655.8899 5.308 2.5424 5.308 5.5085 0 3.6864-3.219 6.1017-8.005 6.1017-4.743 0-7.701-2.4576-7.701-6.2712z"/></g></svg>