<?xml version="1.0" standalone="no"?>
<!DOCTYPE svg PUBLIC "-//W3C//DTD SVG 20010904//EN"
 "http://www.w3.org/TR/2001/REC-SVG-20010904/DTD/svg10.dtd">
<svg version="1.0" xmlns="http://www.w3.org/2000/svg"
 width="400.000000pt" height="400.000000pt" viewBox="0 0 400.000000 400.000000"
 preserveAspectRatio="xMidYMid meet">
<metadata>
Created by potrace 1.14, written by Peter Selinger 2001-2017
</metadata>
<g transform="translate(0.000000,400.000000) scale(0.100000,-0.100000)"
fill="#000000" stroke="none">
<path d="M5 3990 c-4 -6 -4 -36 0 -66 23 -203 207 -384 416 -408 60 -7 122
-14 194 -21 33 -4 67 -8 75 -10 8 -2 42 -7 75 -11 33 -3 62 -8 65 -9 3 -2 26
-6 50 -10 73 -10 307 -65 415 -97 326 -96 606 -223 855 -386 74 -48 225 -157
240 -172 3 -3 39 -34 80 -70 398 -346 687 -803 869 -1374 23 -71 41 -135 41
-142 0 -7 6 -33 14 -56 16 -51 44 -176 52 -233 3 -22 7 -47 9 -55 13 -49 40
-243 50 -360 9 -111 12 -130 33 -195 23 -74 57 -130 117 -189 77 -75 155 -112
261 -122 87 -9 88 -6 79 210 -3 94 -8 189 -10 211 -12 143 -17 193 -20 215 -2
14 -7 50 -10 80 -3 30 -7 66 -10 80 -2 14 -7 43 -10 65 -3 22 -12 74 -20 115
-8 41 -17 89 -19 105 -14 82 -83 337 -130 480 -147 442 -365 840 -646 1177
-58 69 -309 320 -384 383 -332 280 -761 512 -1214 656 -165 52 -433 119 -537
134 -16 2 -52 8 -80 14 -54 10 -180 28 -260 36 -27 3 -70 7 -95 9 -204 22
-535 31 -545 16z"/>
</g>
</svg>
